<svg viewBox="240 58 355 135" role="img" xmlns="http://www.w3.org/2000/svg" width="100%" height="100%">
  <title>BU Dining Buddy</title>

  <defs>
    <clipPath id="iconClip">
      <rect x="0" y="0" width="96" height="96" rx="22"/>
    </clipPath>
  </defs>

  <g transform="translate(240, 60)">
    <rect x="0" y="0" width="96" height="96" rx="22" fill="#29C6FF"/>
    <g clip-path="url(#iconClip)">
      <rect x="0" y="0" width="96" height="96" rx="22" fill="#29C6FF"/>
    </g>

    <text x="48" y="34" text-anchor="middle" font-family="Georgia, serif" font-weight="700" font-size="22" fill="#0d1b2e" letter-spacing="1">BU</text>

    <line x1="30" y1="44" x2="30" y2="75" stroke="#0d1b2e" stroke-width="3" stroke-linecap="round"/>
    <ellipse cx="30" cy="56" rx="6" ry="10" fill="none" stroke="#0d1b2e" stroke-width="2.5"/>

    <line x1="66" y1="44" x2="66" y2="75" stroke="#0d1b2e" stroke-width="3" stroke-linecap="round"/>
    <line x1="62" y1="44" x2="62" y2="56" stroke="#0d1b2e" stroke-width="2" stroke-linecap="round"/>
    <line x1="66" y1="44" x2="66" y2="56" stroke="#0d1b2e" stroke-width="2" stroke-linecap="round"/>
    <line x1="70" y1="44" x2="70" y2="56" stroke="#0d1b2e" stroke-width="2" stroke-linecap="round"/>
    <path d="M62 56 Q66 62 70 56" fill="none" stroke="#0d1b2e" stroke-width="2" stroke-linecap="round"/>

    <text x="48" y="92" text-anchor="middle" font-family="Georgia, serif" font-size="10" fill="#0d1b2e" font-weight="600" letter-spacing="0.5">DINING</text>
  </g>

  <text x="355" y="118" text-anchor="start" font-family="Georgia, serif" font-size="42" font-weight="700" fill="#29C6FF" letter-spacing="-0.5">BU Dining</text>
  <text x="356" y="148" text-anchor="start" font-family="-apple-system, sans-serif" font-size="16" font-weight="400" fill="#72DFFF" letter-spacing="3">B U D D Y</text>

  <line x1="355" y1="158" x2="590" y2="158" stroke="#29C6FF" stroke-width="1.5" stroke-linecap="round" opacity="0.4"/>

  <text x="356" y="178" text-anchor="start" font-family="-apple-system, sans-serif" font-size="12" fill="#72DFFF" letter-spacing="1.5" opacity="0.7">SMART DINING FOR TERRIERS</text>
</svg>
